# xmcd
#
# Track frame offsets:
#	150
#	16502
#	33677
#	46159
#	64435
#	78913
#	95272
#	110876
#	129254
#	145981
#	164774
#	183051
#	198405
#	212555
#	231113
#	244593
#	262942
#
# Disc length: 3713 seconds
#
# Revision: 1
# Processed by: cddbd v1.5.2PL0 Copyright (c) Steve Scherf et al.
# Submitted via: audiograbber 1.83.01
#
DISCID=e30e7f11
DTITLE=ESP489 - ESP489-05
DYEAR=2006
DGENRE=Country
TTITLE0=Sara Evans - Coalmine
TTITLE1=Lee Ann Womack - Finding My Way Back Home
TTITLE2=Julie Roberts - First To Never Know
TTITLE3=Gretchen Wilson and John Rich - Come To Bed
TTITLE4=Martina McBride and Dolly Parton - I Still Miss Someone
TTITLE5=Sugarland - Want To
TTITLE6=Jo Dee Messina - Not Going Down
TTITLE7=Dixie Chicks - Not Ready To Make Nice
TTITLE8=Wreckers - Leave The Pieces
TTITLE9=Carrie Underwood - Don't Forget To Remember Me
TTITLE10=Lindsey Haun - Broken
TTITLE11=Reba McEntire - Love Needs A Holiday
TTITLE12=Jamie O'Neal - I Love My Life
TTITLE13=Taylor Swift - Tim Mcgraw
TTITLE14=Ashley Monroe - Satisfied
TTITLE15=Miranda Lambert - New Strings
TTITLE16=Martina McBride - Til I Can Make It On My Own
EXTD=
EXTT0=
EXTT1=
EXTT2=
EXTT3=
EXTT4=
EXTT5=
EXTT6=
EXTT7=
EXTT8=
EXTT9=
EXTT10=
EXTT11=
EXTT12=
EXTT13=
EXTT14=
EXTT15=
EXTT16=
PLAYORDER=
